<svg xmlns="http://www.w3.org/2000/svg" viewBox="0 0 32 32" id="movie"><g data-name="Layer 2"><path d="M27.85,29.06H4.15A3.15,3.15,0,0,1,1,25.91V11.06H31V25.91A3.15,3.15,0,0,1,27.85,29.06ZM3,13.06V25.91a1.15,1.15,0,0,0,1.15,1.15h23.7A1.15,1.15,0,0,0,29,25.91V13.06Z"></path><path d="M31,13.06H1V6.21A3.15,3.15,0,0,1,4.15,3.06h23.7A3.15,3.15,0,0,1,31,6.21Zm-28-2H29V6.21a1.15,1.15,0,0,0-1.15-1.15H4.15A1.15,1.15,0,0,0,3,6.21Z"></path><rect width="8.58" height="2" x="11.87" y="7" transform="rotate(-71.23 16.153 8)"></rect><rect width="8.58" height="2" x="19.58" y="7" transform="rotate(-71.24 23.86 8.001)"></rect><rect width="8.58" height="2" x="3.85" y="7" transform="rotate(-71.23 8.135 8.003)"></rect><path d="M2,12.06V25.91a2.15,2.15,0,0,0,2.15,2.15h23.7A2.15,2.15,0,0,0,30,25.91V12.06Zm17.78,8L14.34,23.6a.11.11,0,0,1-.17-.09v-7a.11.11,0,0,1,.17-.09l5.44,3.51A.11.11,0,0,1,19.78,20.09Z"></path></g></svg>